<svg height="512" viewBox="0 0 256 256" width="512" xmlns="http://www.w3.org/2000/svg"><rect fill="#cecece" height="151.106" rx="13.665" width="219.26" x="18.37" y="48.668"/><path d="m28.37 186.109v-123.776a13.681 13.681 0 0 1 13.665-13.665h-10a13.681 13.681 0 0 0 -13.665 13.665v123.776a13.681 13.681 0 0 0 13.665 13.665h10a13.681 13.681 0 0 1 -13.665-13.665z" fill="#afafaf"/><path d="m227.63 186.109v-123.776a13.681 13.681 0 0 0 -13.665-13.665h10a13.681 13.681 0 0 1 13.665 13.665v123.776a13.681 13.681 0 0 1 -13.665 13.665h-10a13.681 13.681 0 0 0 13.665-13.665z" fill="#e2e2e2"/><rect fill="#63bce7" height="122.288" rx="5.256" width="202.442" x="26.779" y="57.077"/><path d="m36.779 174.109v-111.776a5.271 5.271 0 0 1 5.256-5.256h-10a5.271 5.271 0 0 0 -5.256 5.256v111.776a5.271 5.271 0 0 0 5.256 5.256h10a5.271 5.271 0 0 1 -5.256-5.256z" fill="#6377e7"/><path d="m219.221 174.109v-111.776a5.271 5.271 0 0 0 -5.256-5.256h10a5.271 5.271 0 0 1 5.256 5.256v111.776a5.271 5.271 0 0 1 -5.256 5.256h-10a5.271 5.271 0 0 0 5.256-5.256z" fill="#63e2e7"/><path d="m89.809 221.932h76.383v9.197h-76.383z" fill="#9e9e9e"/><path d="m89.809 221.932h10v9.197h-10z" fill="#707070"/><path d="m100.67 199.774h54.659v22.158h-54.659z" fill="#cecece"/><path d="m100.67 199.774h10v22.158h-10z" fill="#afafaf"/><circle cx="128" cy="189.569" fill="#9e9e9e" r="4.5"/><path d="m48.667 138.835h33.667v23.333h-33.667z" fill="#f8af23"/><path d="m111.167 138.835h33.667v23.333h-33.667z" fill="#f8af23"/><path d="m173.667 138.835h33.667v23.333h-33.667z" fill="#f8af23"/><path d="m193.021 79.217a24.794 24.794 0 0 0 -28.424-28.4c0-.106.008-.21.008-.315a36.605 36.605 0 0 0 -73.21 0c0 .106.007.21.008.315a24.8 24.8 0 0 0 -28.424 28.4 18.893 18.893 0 0 0 -9.668 16.483 18.908 18.908 0 0 0 18.908 18.908h111.563a18.908 18.908 0 0 0 18.907-18.908 18.892 18.892 0 0 0 -9.668-16.483z" fill="#cecece"/><path d="m63.311 95.7a18.894 18.894 0 0 1 9.668-16.488 24.8 24.8 0 0 1 28.424-28.4c0-.105-.008-.209-.008-.315a36.606 36.606 0 0 1 31.605-36.251 36.568 36.568 0 0 0 -41.605 36.254c0 .105.007.209.008.315a24.8 24.8 0 0 0 -28.424 28.4 18.9 18.9 0 0 0 9.24 35.4h10a18.908 18.908 0 0 1 -18.908-18.915z" fill="#afafaf"/><path d="m192.689 95.7a18.894 18.894 0 0 0 -9.668-16.488 24.8 24.8 0 0 0 -28.424-28.4c0-.105.008-.209.008-.315a36.606 36.606 0 0 0 -31.605-36.251 36.568 36.568 0 0 1 41.605 36.254c0 .105-.007.209-.008.315a24.8 24.8 0 0 1 28.424 28.4 18.9 18.9 0 0 1 -9.24 35.4h-10a18.908 18.908 0 0 0 18.908-18.915z" fill="#e2e2e2"/><g fill="#3f3679"><path d="m128 195.569a6 6 0 1 0 -6-6 6.007 6.007 0 0 0 6 6zm0-9a3 3 0 1 1 -3 3 3 3 0 0 1 3-3z"/><path d="m27.323 240.6h-18a1.5 1.5 0 0 0 0 3h18a1.5 1.5 0 0 0 0-3z"/><path d="m246.68 240.6h-18a1.5 1.5 0 1 0 0 3h18a1.5 1.5 0 0 0 0-3z"/><path d="m218.479 240.6h-180.958a1.5 1.5 0 1 0 0 3h180.958a1.5 1.5 0 1 0 0-3z"/><path d="m9.32 232.63h237.36a1.5 1.5 0 0 0 0-3h-78.989v-7.7a1.5 1.5 0 0 0 -1.5-1.5h-9.362v-19.156h67.137a15.182 15.182 0 0 0 15.164-15.165v-123.776a15.182 15.182 0 0 0 -15.164-15.165h-58.006a38.106 38.106 0 0 0 -75.92 0h-58.006a15.182 15.182 0 0 0 -15.164 15.165v123.776a15.182 15.182 0 0 0 15.164 15.165h67.137v19.157h-9.362a1.5 1.5 0 0 0 -1.5 1.5v7.7h-78.989a1.5 1.5 0 0 0 0 3zm118.68-217.23a35.145 35.145 0 0 1 35.105 35.1l-.008.315a1.5 1.5 0 0 0 1.738 1.481 23.295 23.295 0 0 1 26.7 26.682 1.5 1.5 0 0 0 .747 1.543 17.4 17.4 0 0 1 -8.5 32.588h-111.563a17.4 17.4 0 0 1 -8.506-32.588 1.5 1.5 0 0 0 .747-1.542 23.711 23.711 0 0 1 -.292-3.686 23.292 23.292 0 0 1 27-23 1.5 1.5 0 0 0 1.732-1.493l-.009-.3a35.145 35.145 0 0 1 35.109-35.1zm-66.644 63.038a20.4 20.4 0 0 0 10.862 37.675h54.282v21.223h-15.333a1.5 1.5 0 0 0 -1.5 1.5v10.164h-25.834v-10.165a1.5 1.5 0 0 0 -1.5-1.5h-33.666a1.5 1.5 0 0 0 -1.5 1.5v23.333a1.5 1.5 0 0 0 1.5 1.5h33.666a1.5 1.5 0 0 0 1.5-1.5v-10.168h25.834v10.167a1.5 1.5 0 0 0 1.5 1.5h33.666a1.5 1.5 0 0 0 1.5-1.5v-10.167h25.834v10.167a1.5 1.5 0 0 0 1.5 1.5h33.666a1.5 1.5 0 0 0 1.5-1.5v-23.332a1.5 1.5 0 0 0 -1.5-1.5h-33.666a1.5 1.5 0 0 0 -1.5 1.5v10.165h-25.834v-10.165a1.5 1.5 0 0 0 -1.5-1.5h-15.333v-21.223h54.281a20.4 20.4 0 0 0 10.862-37.675 26.518 26.518 0 0 0 .188-3.141 26.174 26.174 0 0 0 -6.015-16.72h35.149a3.76 3.76 0 0 1 3.755 3.756v111.777a3.76 3.76 0 0 1 -3.755 3.756h-191.931a3.76 3.76 0 0 1 -3.755-3.756v-111.776a3.76 3.76 0 0 1 3.755-3.756h35.149a26.174 26.174 0 0 0 -6.015 16.723 26.555 26.555 0 0 0 .188 3.138zm81.977 82.23h-30.666v-20.333h30.666zm-62.5-20.333v20.333h-30.666v-20.333zm94.334 0h30.666v20.333h-30.666zm-155.297 45.774v-123.776a12.178 12.178 0 0 1 12.164-12.165h47.685a26.284 26.284 0 0 0 -9.628 5.415c-.02 0-.039-.006-.06-.006h-38a6.763 6.763 0 0 0 -6.755 6.756v111.776a6.763 6.763 0 0 0 6.755 6.756h191.935a6.763 6.763 0 0 0 6.755-6.756v-111.776a6.763 6.763 0 0 0 -6.755-6.756h-38.066a26.281 26.281 0 0 0 -9.621-5.409h47.684a12.178 12.178 0 0 1 12.167 12.165v123.776a12.178 12.178 0 0 1 -12.164 12.165h-191.932a12.178 12.178 0 0 1 -12.164-12.165zm82.3 15.165h51.658v19.157h-51.657zm-10.861 22.158h73.383v6.2h-73.383z"/></g></svg>